<mxfile host="app.diagrams.net" modified="2024-05-06T01:24:15.674Z" agent="Mozilla/5.0 (Macintosh; Intel Mac OS X 10_15_7) AppleWebKit/537.36 (KHTML, like Gecko) Chrome/123.0.0.0 Safari/537.36" version="24.3.1" etag="uRi4gmRCQ0BlHlkaN10O" type="github">
  <diagram name="Page-1" id="9TbYq2p2E1xNpW7W60Q4">
    <mxGraphModel>
      <root>
        <mxCell id="0" />
        <mxCell id="1" parent="0" />
      </root>
    </mxGraphModel>
  </diagram>
</mxfile>
